<?xml version="1.0" standalone="no"?>
<!DOCTYPE svg PUBLIC "-//W3C//DTD SVG 20010904//EN"
 "http://www.w3.org/TR/2001/REC-SVG-20010904/DTD/svg10.dtd">
<svg version="1.0" xmlns="http://www.w3.org/2000/svg"
 width="512.000000pt" height="512.000000pt" viewBox="0 0 512.000000 512.000000"
 preserveAspectRatio="xMidYMid meet">

<g transform="translate(0.000000,512.000000) scale(0.100000,-0.100000)"
fill="#000000" stroke="none">
<path d="M1667 4873 c-260 -308 -547 -659 -547 -669 0 -7 7 -20 16 -28 14 -14
84 -16 624 -16 540 0 610 2 624 16 9 8 16 21 16 27 0 7 -106 140 -236 297
-361 435 -382 460 -404 460 -12 0 -47 -33 -93 -87z"/>
<path d="M2736 4944 c-9 -8 -16 -21 -16 -28 0 -6 138 -178 308 -381 254 -306
311 -370 332 -370 21 0 78 64 333 370 169 203 307 375 307 381 0 7 -7 20 -16
28 -14 14 -84 16 -624 16 -540 0 -610 -2 -624 -16z"/>
<path d="M727 3989 c-92 -22 -173 -88 -216 -179 l-26 -55 0 -1675 0 -1675 26
-55 c33 -70 89 -126 159 -159 l55 -26 1835 0 1835 0 55 26 c70 33 126 89 159
159 l26 55 0 1675 0 1675 -26 55 c-33 70 -89 126 -159 159 l-55 26 -1815 2
c-1038 0 -1831 -3 -1853 -8z m3581 -321 c17 -17 17 -3159 0 -3176 -17 -17
-3479 -17 -3496 0 -17 17 -17 3159 0 3176 17 17 3479 17 3496 0z"/>
<path d="M1687 3510 c-92 -24 -179 -97 -219 -185 -31 -70 -31 -180 0 -250 30
-65 102 -138 166 -166 71 -32 182 -32 251 -1 65 30 138 102 166 166 32 71 32
181 0 252 -27 63 -101 136 -163 164 -54 24 -148 33 -201 20z"/>
<path d="M3287 3510 c-94 -24 -173 -90 -216 -180 -34 -74 -36 -182 -3 -255 30
-65 102 -138 166 -166 75 -33 182 -32 256 2 201 95 249 357 94 513 -73 73
-201 110 -297 86z"/>
<path d="M1318 2706 c-89 -24 -168 -107 -187 -197 -7 -29 -11 -177 -11 -358 0
-368 3 -386 84 -467 50 -50 122 -84 175 -84 14 0 24 -65 68 -415 57 -460 58
-461 136 -513 39 -26 46 -27 178 -27 136 0 138 0 180 30 74 52 77 64 133 516
43 350 52 409 66 409 54 0 126 34 176 85 83 83 86 99 82 497 -3 370 -3 370
-73 446 -56 63 -111 84 -225 90 l-97 5 -118 -222 c-66 -121 -122 -221 -125
-221 -4 0 -60 99 -124 220 l-118 220 -76 -1 c-43 0 -98 -6 -124 -13z"/>
<path d="M2906 2704 c-34 -11 -64 -31 -102 -68 -81 -82 -84 -98 -84 -476 0
-378 3 -394 84 -476 50 -50 122 -84 175 -84 14 0 24 -65 68 -415 57 -460 58
-461 136 -513 39 -26 46 -27 178 -27 136 0 138 0 180 30 74 52 77 64 133 516
43 350 52 409 66 409 54 0 126 34 176 84 81 82 84 98 84 476 0 378 -3 394 -84
476 -64 63 -123 84 -237 84 l-77 0 -118 -220 c-65 -121 -121 -220 -124 -220
-4 0 -60 99 -124 220 l-118 220 -81 -1 c-45 0 -104 -7 -131 -15z"/>
</g>
</svg>
